<?xml version="1.0" encoding="iso-8859-1"?>
<!-- Generator: Adobe Illustrator 19.0.0, SVG Export Plug-In . SVG Version: 6.00 Build 0)  -->
<svg version="1.1" id="Capa_1" xmlns="http://www.w3.org/2000/svg" xmlns:xlink="http://www.w3.org/1999/xlink" x="0px" y="0px"
	 viewBox="0 0 512.001 512.001" style="enable-background:new 0 0 512.001 512.001;" xml:space="preserve">
<g>
	<g>
		<path d="M209.307,22.259C191.309,4.305,162.028,4.26,144.03,22.243L13.49,152.799c-17.984,17.997-17.984,47.279-0.015,65.277
			L170.29,374.878l195.822-195.822L209.307,22.259z"/>
	</g>
</g>
<g>
	<g>
		<path d="M417.534,472.458H263.693c-8.503,0-15.384,6.881-15.384,15.384c0,8.503,6.881,15.384,15.384,15.384h153.842
			c8.503,0,15.384-6.881,15.384-15.384C432.918,479.339,426.038,472.458,417.534,472.458z"/>
	</g>
</g>
<g>
	<g>
		<circle cx="202.158" cy="487.842" r="15.384"/>
	</g>
</g>
<g>
	<g>
		<path d="M498.527,311.462L387.866,200.81l-195.82,195.82l45.063,45.057v-0.001h196.446l64.955-64.947
			C516.495,358.742,516.495,329.461,498.527,311.462z"/>
	</g>
</g>
<g>
</g>
<g>
</g>
<g>
</g>
<g>
</g>
<g>
</g>
<g>
</g>
<g>
</g>
<g>
</g>
<g>
</g>
<g>
</g>
<g>
</g>
<g>
</g>
<g>
</g>
<g>
</g>
<g>
</g>
</svg>
