<?xml version="1.0" encoding="utf-8"?>
<!-- Generator: Adobe Illustrator 16.0.0, SVG Export Plug-In . SVG Version: 6.00 Build 0)  -->
<!DOCTYPE svg PUBLIC "-//W3C//DTD SVG 1.1//EN" "http://www.w3.org/Graphics/SVG/1.1/DTD/svg11.dtd">
<svg version="1.1" id="Capa_1" xmlns="http://www.w3.org/2000/svg" xmlns:xlink="http://www.w3.org/1999/xlink" x="0px" y="0px"
	 width="504.686px" height="511.999px" viewBox="-124.783 -178.045 504.686 511.999"
	 enable-background="new -124.783 -178.045 504.686 511.999" xml:space="preserve">
<g>
	<g>
		<path fill="#FFFFFF" d="M316.819-99.275v-78.77h-441.602v433.231c0,0,0,78.768,63.085,78.768h394.284
			c0,0,47.316-1.215,47.316-78.768V-99.275H316.819z M-61.697,294.57c-31.543,0-31.543-39.384-31.543-39.384v-393.848h378.515
			v393.848c0,18.137,4.479,30.7,10.662,39.384H-61.697z"/>
		<rect x="-61.697" y="-59.892" fill="#FFFFFF" width="315.429" height="39.386"/>
		<rect x="111.789" y="176.419" fill="#FFFFFF" width="110.4" height="39.384"/>
		<rect x="111.789" y="97.647" fill="#FFFFFF" width="141.943" height="39.388"/>
		<rect x="111.789" y="18.878" fill="#FFFFFF" width="141.943" height="39.386"/>
		<rect x="-61.697" y="18.878" fill="#FFFFFF" width="141.943" height="196.925"/>
	</g>
</g>
</svg>
