<?xml version="1.0" encoding="iso-8859-1"?>
<!-- Generator: Adobe Illustrator 18.1.1, SVG Export Plug-In . SVG Version: 6.00 Build 0)  -->
<svg xmlns="http://www.w3.org/2000/svg" xmlns:xlink="http://www.w3.org/1999/xlink" version="1.1" id="Capa_1" x="0px" y="0px" viewBox="0 0 51.709 51.709" style="enable-background:new 0 0 51.709 51.709;" xml:space="preserve" width="512px" height="512px">
<g>
	<path d="M0,18.347v24.453c0,2.209,1.791,4,4,4h43.708c2.209,0,4-1.791,4-4V18.347H0z" fill="#FFFFFF"/>
	<path d="M51.709,13.576c0-2.209-1.791-4-4-4H26.188c-2.209,0-4.448-1.045-5-2.333   c-0.552-1.289-2.791-2.333-5-2.333H6c-2.209,0-4.448,1.045-5,2.333c-0.552,1.289-1,4.124-1,6.333v0.771h51.708L51.709,13.576   L51.709,13.576z" fill="#FFFFFF"/>
</g>
<g>
</g>
<g>
</g>
<g>
</g>
<g>
</g>
<g>
</g>
<g>
</g>
<g>
</g>
<g>
</g>
<g>
</g>
<g>
</g>
<g>
</g>
<g>
</g>
<g>
</g>
<g>
</g>
<g>
</g>
</svg>
