<?xml version="1.0" encoding="utf-8"?>
<!-- Generator: Adobe Illustrator 16.0.0, SVG Export Plug-In . SVG Version: 6.00 Build 0)  -->
<!DOCTYPE svg PUBLIC "-//W3C//DTD SVG 1.1//EN" "http://www.w3.org/Graphics/SVG/1.1/DTD/svg11.dtd">
<svg version="1.1" id="Capa_1" xmlns="http://www.w3.org/2000/svg" xmlns:xlink="http://www.w3.org/1999/xlink" x="0px" y="0px"
	 width="504.686px" height="512px" viewBox="-124.783 -178.044 504.686 512" enable-background="new -124.783 -178.044 504.686 512"
	 xml:space="preserve">
<g>
	<g>
		<g>
			<path fill="#FFFFFF" d="M367.537-29.304l-75.805-115.458c-13.691-20.835-36.571-33.283-61.238-33.283H36.19
				c-31.921,0-61.445,16.161-79.026,43.232l-67.878,104.57c-9.211,12.852-14.068,28.053-14.068,43.957v245.52
				c0,41.201,33.015,74.721,73.6,74.721h357.488c40.583,0,73.598-33.52,73.598-74.721V12.134
				C379.903-2.639,375.635-16.964,367.537-29.304z M306.305-7.249c-29.001,0-52.573,23.953-52.573,53.372v106.363
				c0,29.439-23.573,53.372-52.573,53.372H53.96c-28.979,0-52.572-23.933-52.572-53.372V45.739
				c0-29.228-23.405-52.988-52.192-52.988h-48.556c1.557-3.694,3.386-7.303,5.784-10.612c0.105-0.149,0.21-0.278,0.294-0.427
				l68.007-104.783c13.669-21.05,36.632-33.625,61.466-33.625h194.302c17.624,0,33.964,8.882,43.741,23.762l75.808,115.458
				c2.08,3.181,3.386,6.724,4.755,10.227H306.305z"/>
		</g>
	</g>
	<g>
		<g>
			<path fill="#FFFFFF" d="M232.704-7.634H22.417c-5.804,0-10.514,4.784-10.514,10.676c0,5.893,4.71,10.675,10.514,10.675h210.284
				c5.804,0,10.517-4.782,10.517-10.675C243.217-2.851,238.507-7.634,232.704-7.634z"/>
		</g>
	</g>
	<g>
		<g>
			<path fill="#FFFFFF" d="M222.189,35.063H32.931c-5.804,0-10.514,4.783-10.514,10.676s4.71,10.674,10.514,10.674h189.258
				c5.805,0,10.515-4.782,10.515-10.674S227.994,35.063,222.189,35.063z"/>
		</g>
	</g>
	<g>
		<g>
			<path fill="#FFFFFF" d="M222.189,77.763H32.931c-5.804,0-10.514,4.782-10.514,10.674c0,5.893,4.71,10.675,10.514,10.675h189.258
				c5.805,0,10.515-4.782,10.515-10.675C232.704,82.545,227.994,77.763,222.189,77.763z"/>
		</g>
	</g>
	<g>
		<g>
			<path fill="#FFFFFF" d="M222.189,120.46H32.931c-5.804,0-10.514,4.785-10.514,10.678s4.71,10.675,10.514,10.675h189.258
				c5.805,0,10.515-4.782,10.515-10.675S227.994,120.46,222.189,120.46z"/>
		</g>
	</g>
	<g>
		<g>
			<path fill="#FFFFFF" d="M211.672,163.158H43.446c-5.804,0-10.516,4.785-10.516,10.677c0,5.893,4.712,10.675,10.516,10.675
				h168.229c5.804,0,10.514-4.782,10.514-10.675C222.189,167.943,217.476,163.158,211.672,163.158z"/>
		</g>
	</g>
</g>
</svg>
