<?xml version="1.0" encoding="iso-8859-1"?>
<!-- Generator: Adobe Illustrator 19.0.0, SVG Export Plug-In . SVG Version: 6.00 Build 0)  -->
<svg xmlns="http://www.w3.org/2000/svg" xmlns:xlink="http://www.w3.org/1999/xlink" version="1.1" id="Capa_1" x="0px" y="0px" viewBox="0 0 512 512" style="enable-background:new 0 0 512 512;" xml:space="preserve" width="512px" height="512px">
<g>
	<g>
		<path d="M61,30c-24.901,0-45,20.099-45,45v330c0,8.399,6.599,15,15,15h15V135c0-8.401,6.599-15,15-15c24.901,0,45-20.099,45-45    S85.901,30,61,30z" fill="#FFFFFF"/>
	</g>
</g>
<g>
	<g>
		<path d="M76,180c0,15.057,0,311.852,0,317c0,8.284,6.716,15,15,15h330c8.284,0,15-6.716,15-15V180H76z M301,420H151    c-8.291,0-15-6.709-15-15c0-8.291,6.709-15,15-15h150c8.291,0,15,6.709,15,15C316,413.291,309.291,420,301,420z M361,330H151    c-8.291,0-15-6.709-15-15c0-8.291,6.709-15,15-15h210c8.291,0,15,6.709,15,15C376,323.291,369.291,330,361,330z M361,240H151    c-8.291,0-15-6.709-15-15s6.709-15,15-15h210c8.291,0,15,6.709,15,15S369.291,240,361,240z" fill="#FFFFFF"/>
	</g>
</g>
<g>
	<g>
		<path d="M421,0H61c41.353,0,75,33.647,75,75c0,36.226-25.811,66.519-60,73.491V150h345c41.422,0,75-33.578,75-75S462.422,0,421,0z    " fill="#FFFFFF"/>
	</g>
</g>
<g>
</g>
<g>
</g>
<g>
</g>
<g>
</g>
<g>
</g>
<g>
</g>
<g>
</g>
<g>
</g>
<g>
</g>
<g>
</g>
<g>
</g>
<g>
</g>
<g>
</g>
<g>
</g>
<g>
</g>
</svg>
