<?xml version="1.0" encoding="utf-8"?>
<!-- Generator: Adobe Illustrator 16.0.0, SVG Export Plug-In . SVG Version: 6.00 Build 0)  -->
<!DOCTYPE svg PUBLIC "-//W3C//DTD SVG 1.1//EN" "http://www.w3.org/Graphics/SVG/1.1/DTD/svg11.dtd">
<svg version="1.1" id="Capa_1" xmlns="http://www.w3.org/2000/svg" xmlns:xlink="http://www.w3.org/1999/xlink" x="0px" y="0px"
	 width="932.18px" height="932.179px" viewBox="0 0 932.18 932.179" enable-background="new 0 0 932.18 932.179"
	 xml:space="preserve">
<g>
	<path fill="#FFFFFF" d="M61.2,341.538c4.9,16.8,11.7,33,20.3,48.2L57,420.638c-8,10.101-7.1,24.5,1.9,33.601l42.2,42.201
		c9.1,9.1,23.5,9.898,33.6,1.898l30.7-24.301c15.8,9.102,32.6,16.201,50.1,21.201l4.601,39.5c1.5,12.799,12.3,22.398,25.1,22.398
		h59.7c12.8,0,23.6-9.6,25.1-22.398l4.4-38.102c18.8-4.898,36.8-12.199,53.7-21.699l29.7,23.5c10.1,8,24.5,7.1,33.6-1.9l42.2-42.2
		c9.1-9.1,9.9-23.5,1.9-33.6l-23.101-29.3c9.601-16.602,17.101-34.301,22.101-52.801l35.6-4.1c12.801-1.5,22.4-12.3,22.4-25.1
		v-59.701c0-12.8-9.601-23.6-22.4-25.1l-35.1-4.1c-4.802-18.3-12-35.8-21.199-52.2l21.6-27.3c8-10.1,7.101-24.5-1.899-33.6
		l-42.101-42.1c-9.1-9.1-23.5-9.9-33.6-1.9l-26.5,21c-17.2-10.1-35.602-17.8-54.9-23l-4-34.3c-1.5-12.8-12.3-22.4-25.1-22.4h-59.7
		c-12.8,0-23.601,9.6-25.101,22.4l-4,34.3c-19.8,5.3-38.699,13.3-56.3,23.8l-27.5-21.8c-10.1-8-24.5-7.1-33.6,1.9l-42.2,42.2
		c-9.1,9.1-9.9,23.5-1.9,33.6l23,29.1c-9.199,16.6-16.199,34.3-20.8,52.7l-36.8,4.2c-12.8,1.5-22.4,12.3-22.4,25.1v59.701
		c0,12.8,9.601,23.6,22.4,25.1L61.2,341.538z M277.5,180.038c54.4,0,98.7,44.3,98.7,98.7s-44.3,98.7-98.7,98.7
		c-54.398,0-98.7-44.3-98.7-98.7S223.1,180.038,277.5,180.038z"/>
	<path fill="#FFFFFF" d="M867.699,356.238l-31.5-26.601c-9.699-8.2-24-7.8-33.199,0.9l-17.399,16.3c-14.699-7.1-30.299-12.1-46.4-15
		l-4.897-24c-2.5-12.4-14-21-26.603-20l-41.1,3.5c-12.601,1.1-22.5,11.4-22.9,24.1l-0.799,24.4c-15.801,5.7-30.701,13.5-44.301,23.3
		l-20.799-13.8c-10.603-7-24.701-5-32.9,4.7l-26.6,31.7c-8.201,9.7-7.802,24,0.897,33.2l18.201,19.398
		c-6.301,14.2-10.801,29.102-13.4,44.401l-26,5.299c-12.399,2.5-21,14-20,26.602l3.5,41.1c1.101,12.6,11.4,22.5,24.101,22.9
		l28.1,0.898c5.103,13.4,11.801,26.102,19.9,38l-15.699,23.701c-7,10.6-5,24.699,4.699,32.898l31.5,26.602
		c9.701,8.199,24,7.799,33.201-0.9l20.6-19.301c13.5,6.301,27.699,11,42.299,13.801l5.701,28.199c2.5,12.4,14,21,26.6,20l41.101-3.5
		c12.6-1.1,22.5-11.398,22.899-24.1l0.9-27.602c15-5.299,29.199-12.5,42.299-21.398l22.701,15c10.6,7,24.699,5,32.9-4.699l26.6-31.5
		c8.199-9.701,7.799-24-0.9-33.201L872.7,592.138c6.701-14.201,11.603-29.201,14.4-44.602l25-5.1c12.399-2.5,21-14,20-26.602
		l-3.5-41.1c-1.101-12.6-11.4-22.5-24.101-22.9l-25.1-0.8c-5.201-14.601-12.201-28.399-20.9-41.2l13.699-20.6
		C879.4,378.638,877.4,364.438,867.699,356.238z M712.802,593.837c-44.4,3.801-83.603-29.301-87.302-73.699
		c-3.801-44.4,29.302-83.601,73.699-87.301c44.4-3.8,83.603,29.301,87.301,73.7C790.302,550.937,757.199,590.138,712.802,593.837z"
		/>
	<path fill="#FFFFFF" d="M205,704.437c-12.6,1.301-22.3,11.9-22.399,24.602l-0.301,25.299c-0.199,12.701,9.2,23.5,21.801,25.102
		l18.6,2.398c3.1,11.301,7.5,22.102,13.2,32.301l-12,14.801c-8,9.898-7.4,24.1,1.5,33.199l17.7,18.102
		c8.899,9.1,23.1,10.1,33.199,2.299l14.899-11.5c10.5,6.201,21.601,11.102,33.2,14.5l2,19.201c1.3,12.6,11.899,22.299,24.6,22.398
		l25.301,0.301c12.699,0.199,23.5-9.199,25.101-21.801l2.3-18.199c12.602-3.102,24.602-7.801,36-14l14,11.301
		c9.9,8,24.102,7.398,33.201-1.5l18.101-17.701c9.1-8.898,10.1-23.1,2.301-33.199L496.6,818.437c6.6-11,11.701-22.699,15.201-35
		l16.6-1.699c12.601-1.301,22.299-11.9,22.4-24.6l0.299-25.301c0.201-12.699-9.199-23.5-21.799-25.1l-16.201-2.102
		c-3.1-12.199-7.699-24-13.699-35l10.101-12.398c8-9.9,7.399-24.102-1.5-33.201l-17.699-18.1c-8.9-9.102-23.103-10.102-33.201-2.301
		l-12.101,9.301c-11.399-6.9-23.601-12.199-36.399-15.801L407,581.437c-1.3-12.602-11.898-22.301-24.6-22.4l-25.3-0.299
		c-12.7-0.201-23.5,9.199-25.102,21.799l-2,15.602c-13.199,3.398-25.898,8.6-37.699,15.398l-12.5-10.199
		c-9.899-8-24.101-7.4-33.2,1.5l-18.2,17.801c-9.101,8.898-10.101,23.1-2.3,33.199l10.699,13.801c-6.199,11-11.1,22.699-14.3,35
		L205,704.437z M368.3,675.837c36.301,0.4,65.399,30.301,65.001,66.6c-0.4,36.301-30.302,65.4-66.602,65
		c-36.3-0.398-65.399-30.299-65-66.6C302.1,704.539,332,675.437,368.3,675.837z"/>
</g>
</svg>
